HIERARCHY
ROOT ui
{
	 OFFSET 0 0 0
	 CHANNELS 3 XPosition YPosition Z Position
	 EndSite
	 {
	 OFFSET 0 -1 0
	 }
}
ROOT li
{
	 OFFSET 0 0 0
	 CHANNELS 3 XPosition YPosition Z Position
	 EndSite
	 {
	 OFFSET 0 -1 0
	 }
}
ROOT ul
{
	 OFFSET 0 0 0
	 CHANNELS 3 XPosition YPosition Z Position
	 EndSite
	 {
	 OFFSET 0 -1 0
	 }
}
ROOT ll
{
	 OFFSET 0 0 0
	 CHANNELS 3 XPosition YPosition Z Position
	 EndSite
	 {
	 OFFSET 0 -1 0
	 }
}
ROOT tt
{
	 OFFSET 0 0 0
	 CHANNELS 3 XPosition YPosition Z Position
	 EndSite
	 {
	 OFFSET 0 -1 0
	 }
}
ROOT tb
{
	 OFFSET 0 0 0
	 CHANNELS 3 XPosition YPosition Z Position
	 EndSite
	 {
	 OFFSET 0 -1 0
	 }
}
ROOT td
{
	 OFFSET 0 0 0
	 CHANNELS 3 XPosition YPosition Z Position
	 EndSite
	 {
	 OFFSET 0 -1 0
	 }
}
ROOT v
{
	 OFFSET 0 0 0
	 CHANNELS 3 XPosition YPosition Z Position
	 EndSite
	 {
	 OFFSET 0 -1 0
	 }
}
ROOT bn
{
	 OFFSET 0 0 0
	 CHANNELS 3 XPosition YPosition Z Position
	 EndSite
	 {
	 OFFSET 0 -1 0
	 }
}
MOTION
Frames: 19
Frame Time: 0.002
-0.0013631639480590821	-0.0075373129844665526	0		0.5717803344726563	-2.56699658203125	0		-0.9310595092773437	0.13180992126464844	0		-0.5187945556640625	-2.874893310546875	0		2.25018115234375	-1.1352490234375	0		3.411829345703125	-0.08348570251464844	0		4.70218798828125	0.6089619750976563	0		6.01465087890625	0.5098994750976562	0		-0.037137683868408204	5.98501513671875	0		
0.0013273979425430299	-0.004443680763244629	0		0.5754893798828125	-2.561924560546875	0		-0.9182115478515624	0.14373249816894532	0		-0.5429251098632812	-2.86032373046875	0		2.253444091796875	-1.099175048828125	0		3.44262060546875	-0.07490692138671876	0		4.6979541015625	0.6161475830078125	0		6.01871337890625	0.5339334106445313	0		-0.005131805896759033	6.0035966796875	0		
9.904720187187196E-4	-0.004355731010437011	0		0.6000457153320312	-2.5672783203125	0		-0.9335979614257812	0.14108987426757813	0		-0.5161072387695312	-2.85070849609375	0		2.258486572265625	-1.0771915283203124	0		3.42665478515625	-0.053561180114746094	0		4.707005859375	0.6380465087890625	0		6.01325732421875	0.5270751342773438	0		-0.03778009796142578	5.98425048828125	0		
6.86963975429535E-4	-0.004329370975494385	0		0.5598585205078125	-2.559552978515625	0		-0.9320592651367188	0.1320872039794922	0		-0.5472972412109375	-2.8431357421875	0		2.269421875	-1.0633720703125	0		3.42210546875	-0.06747965240478515	0		4.70670556640625	0.638049072265625	0		6.00909765625	0.5351401977539062	0		-0.03805335235595703	5.98427685546875	0		
0.013511053085327148	4.043720066547394E-4	0		0.5834946899414063	-2.565013427734375	0		-0.9373724975585938	0.12914244079589843	0		-0.5553583984375	-2.831031494140625	0		2.2735419921875	-1.041491943359375	0		3.453137451171875	-0.051078147888183593	0		4.712568359375	0.644886474609375	0		6.01969580078125	0.5268866577148438	0		-0.004190576076507568	5.98964111328125	0		
-0.0028399200439453124	-0.007414130210876465	0		0.5402108154296875	-2.568359375	0		-1.0025924072265624	0.129187255859375	0		-0.5725415649414063	-2.828832275390625	0		2.2689248046875	-1.0075169067382812	0		3.46190576171875	-0.05234730529785156	0		4.7084814453125	0.6518410034179688	0		6.008626953125	0.5349603881835937	0		-0.03750399398803711	5.98312158203125	0		
0.02212138748168945	-0.0010201209783554078	0		0.5622740478515625	-2.55591455078125	0		-0.9218505859375	0.1225998764038086	0		-0.5743695068359375	-2.809964599609375	0		2.262294189453125	-0.9775672607421875	0		3.456082763671875	-0.03341546630859375	0		4.7234453125	0.6584034423828125	0		6.03276513671875	0.5513609008789062	0		-0.022461313247680664	5.99369091796875	0		
-0.009884786605834962	0.0043130707740783696	0		0.5611395263671874	-2.55812548828125	0		-0.9219496459960937	0.12237123870849609	0		-0.5452800903320313	-2.799704833984375	0		2.297558837890625	-0.9574152221679687	0		3.4698408203125	-0.04188980484008789	0		4.71559375	0.6723123779296875	0		6.02466748046875	0.5512717895507813	0		-0.022559375762939454	5.99346240234375	0		
0.025913293838500977	-0.005609903812408447	0		0.5850132446289062	-2.563837158203125	0		-0.9260576171875	0.11814967346191406	0		-0.5761865234375	-2.792452880859375	0		2.279052490234375	-0.9273739624023437	0		3.501096923828125	-0.0257242431640625	0		4.7214306640625	0.6649229125976562	0		6.02362890625	0.551006103515625	0		-0.02260543441772461	5.9931708984375	0		
-0.012951998710632325	7.22311019897461E-4	0		0.5591005249023437	-2.5607314453125	0		-0.9311043090820312	0.11388290405273438	0		-0.5469664306640625	-2.78231884765625	0		2.2996376953125	-0.89607666015625	0		3.468037353515625	-0.03048582458496094	0		4.727591796875	0.6724771728515625	0		6.02779052734375	0.5585992431640625	0		-0.03877285003662109	5.98310107421875	0		
0.013109543800354003	-0.0011471920013427733	0		0.5700703735351562	-2.568333984375	0		-1.0009405517578125	0.11869599151611328	0		-0.57367333984375	-2.771260986328125	0		2.302216796875	-0.8685184326171875	0		3.4963271484375	-0.019376962661743165	0		4.738669921875	0.671892333984375	0		6.02758984375	0.5422160034179687	0		-0.022543094635009767	5.9924052734375	0		
1.6445599496364593E-4	-0.00638864278793335	0		0.547370849609375	-2.560398193359375	0		-0.9967308349609375	0.12214826202392579	0		-0.550413818359375	-2.76614013671875	0		2.311818359375	-0.8431373291015625	0		3.5175	-0.01819573783874512	0		4.72780859375	0.6716436767578124	0		6.04114697265625	0.5655498046875	0		-0.0062655510902404786	6.00165185546875	0		
0.01751486396789551	0.0017848060131072999	0		0.564670654296875	-2.556219970703125	0		-0.9215484619140625	0.12029672241210937	0		-0.5678436279296875	-2.74635791015625	0		2.31281005859375	-0.798653076171875	0		3.51706396484375	0.0023190760612487793	0		4.74687255859375	0.6638208618164062	0		6.037478515625	0.5731387329101563	0		-0.02227243423461914	5.99240771484375	0		
-0.009236989974975586	0.001679360032081604	0		0.5629033813476563	-2.558759033203125	0		-0.9253751831054687	0.11577949523925782	0		-0.5635046997070312	-2.743013671875	0		2.3336201171875	-0.7675673828125	0		3.49922314453125	-0.0029113938808441164	0		4.73811181640625	0.6634429321289063	0		6.0374365234375	0.5566171875	0		-0.038256649017333985	5.9821103515625	0		
-0.008950103759765625	0.0010496330261230468	0		0.5601476440429688	-2.563329345703125	0		-1.0000779418945311	0.11645588684082031	0		-0.5621538696289062	-2.7416669921875	0		2.32956494140625	-0.7310902709960938	0		3.5315927734375	9.33821976184845E-4	0		4.74914404296875	0.648672607421875	0		6.0377177734375	0.5560514526367187	0		-0.0721330795288086	5.97607763671875	0		
-0.008626045227050782	3.725750148296356E-4	0		0.5635720825195313	-2.560052734375	0		-0.9889147338867188	0.10657550048828125	0		-0.5644984741210938	-2.72530078125	0		2.330318603515625	-0.7077430419921875	0		3.53679345703125	-0.006787458896636963	0		4.73846240234375	0.648245361328125	0		6.02587890625	0.5466585083007812	0		-0.022572460174560546	5.9925380859375	0		
0.018726709365844727	-8.223379850387573E-4	0		0.5400548706054688	-2.555347412109375	0		-0.9835075073242188	0.10875227355957032	0		-0.627849609375	-2.7109111328125	0		2.338612548828125	-0.6555640869140625	0		3.559479736328125	0.011150267601013184	0		4.74980859375	0.6473949584960937	0		6.0313681640625	0.5539293823242187	0		-0.007106222152709961	6.0025517578125	0		
-7.61942982673645E-4	0.005762622833251953	0		0.5664232788085938	-2.55955810546875	0		-0.9881751708984375	0.10506085205078125	0		-0.5894456787109374	-2.71335009765625	0		2.347672119140625	-0.6184384155273438	0		3.530957275390625	0.015947336196899413	0		4.76020068359375	0.6475282592773437	0		6.0317451171875	0.5532575073242187	0		-0.023967403411865235	5.9930859375	0		
-0.007473677158355713	-0.0019187439680099488	0		0.5560012817382812	-2.553161865234375	0		-0.9877672729492187	0.10423895263671876	0		-0.5978128662109375	-2.70400927734375	0		2.3526865234375	-0.58527783203125	0		3.591445068359375	0.019153587341308592	0		4.7703525390625	0.6326329345703126	0		6.024146484375	0.5526968383789063	0		0.00943862247467041	5.99770263671875	0		
